<svg width="119" height="48" viewBox="0 0 119 48" fill="none" xmlns="http://www.w3.org/2000/svg">
<path d="M36.5349 33.5635C36.8995 33.5883 37.1078 33.8888 37.0589 34.1624C36.6216 36.6098 35.41 38.8875 33.566 40.6813C31.4275 42.7616 28.5778 44.055 25.5233 44.3239C22.4688 44.5928 19.416 43.8189 16.91 42.1448C14.4047 40.4712 12.6115 38.0091 11.8418 35.2023C11.0722 32.3962 11.3734 29.4207 12.694 26.8041C14.015 24.1866 16.2729 22.094 19.0718 20.9068C21.8711 19.7193 25.0243 19.5172 27.9669 20.3378C30.496 21.0431 32.7236 22.4629 34.3652 24.39C34.5514 24.6086 34.5157 24.9848 34.1982 25.184L24.5436 31.2403C23.861 31.6685 24.1252 32.7199 24.9291 32.7746L36.5349 33.5635Z" fill="url(#paint0_radial_170_7587)" stroke="url(#paint1_linear_170_7587)" stroke-width="1.24752"/>
<path d="M24.8241 18.0876C23.5918 10.6235 21.9558 8.06615 16.5215 3.52557C16.2598 3.30694 15.8617 3.48361 15.8471 3.82429C15.4459 13.1735 17.049 15.6211 24.2657 18.5351C24.563 18.6551 24.8763 18.4039 24.8241 18.0876Z" stroke="#547709" stroke-width="1.24752"/>
<path d="M24.2425 19.2162C14.57 19.302 12.6513 15.8563 10.9476 8.24254C10.8796 7.93857 11.1614 7.67169 11.4618 7.75432C19.3482 9.92421 22.5927 11.6319 24.9888 18.1401C25.1805 18.6608 24.7973 19.2113 24.2425 19.2162Z" fill="#6B980B" stroke="#547709" stroke-width="1.0396"/>
<path d="M54.944 19.128C55.68 19.2667 56.2773 19.5387 56.736 19.944C57.2053 20.3493 57.44 20.9573 57.44 21.768C57.44 22.952 57.0133 23.7893 56.16 24.28C55.3173 24.76 54.1333 25 52.608 25H49.04V13.912H52.176C53.7333 13.912 54.9227 14.136 55.744 14.584C56.5653 15.0213 56.976 15.7413 56.976 16.744C56.976 17.3947 56.7787 17.9227 56.384 18.328C56 18.7227 55.52 18.9893 54.944 19.128ZM51.664 15.768V18.344H52.64C53.7493 18.344 54.304 17.896 54.304 17C54.304 16.552 54.1547 16.2373 53.856 16.056C53.5573 15.864 53.0827 15.768 52.432 15.768H51.664ZM52.624 23.096C53.3173 23.096 53.84 22.9947 54.192 22.792C54.5547 22.5787 54.736 22.1893 54.736 21.624C54.736 20.6 54.096 20.088 52.816 20.088H51.664V23.096H52.624ZM66.275 20.584C66.275 20.936 66.259 21.24 66.227 21.496H60.963C61.0483 22.2107 61.251 22.712 61.571 23C61.891 23.288 62.3337 23.432 62.899 23.432C63.2403 23.432 63.571 23.3733 63.891 23.256C64.211 23.128 64.5577 22.936 64.931 22.68L65.971 24.088C64.979 24.8773 63.875 25.272 62.659 25.272C61.283 25.272 60.227 24.8667 59.491 24.056C58.755 23.2453 58.387 22.1573 58.387 20.792C58.387 19.928 58.5417 19.1547 58.851 18.472C59.1603 17.7787 59.6137 17.2347 60.211 16.84C60.8083 16.4347 61.523 16.232 62.355 16.232C63.5817 16.232 64.5417 16.616 65.235 17.384C65.9283 18.152 66.275 19.2187 66.275 20.584ZM63.795 19.864C63.7737 18.5627 63.315 17.912 62.419 17.912C61.9817 17.912 61.6403 18.072 61.395 18.392C61.1603 18.712 61.0163 19.24 60.963 19.976H63.795V19.864ZM71.3751 16.232C71.9618 16.232 72.4898 16.3173 72.9591 16.488C73.4285 16.6587 73.8711 16.92 74.2871 17.272L73.1991 18.776C72.6658 18.3707 72.1271 18.168 71.5831 18.168C71.0178 18.168 70.5911 18.376 70.3031 18.792C70.0151 19.208 69.8711 19.88 69.8711 20.808C69.8711 21.704 70.0151 22.3387 70.3031 22.712C70.5911 23.0853 71.0071 23.272 71.5511 23.272C71.8391 23.272 72.1005 23.2293 72.3351 23.144C72.5698 23.048 72.8525 22.8987 73.1831 22.696L74.2871 24.264C73.4445 24.936 72.4898 25.272 71.4231 25.272C70.5591 25.272 69.8125 25.0907 69.1831 24.728C68.5538 24.3547 68.0685 23.8373 67.7271 23.176C67.3858 22.504 67.2151 21.72 67.2151 20.824C67.2151 19.928 67.3858 19.1333 67.7271 18.44C68.0685 17.7467 68.5538 17.208 69.1831 16.824C69.8125 16.4293 70.5431 16.232 71.3751 16.232ZM82.4469 20.584C82.4469 20.936 82.4309 21.24 82.3989 21.496H77.1349C77.2202 22.2107 77.4229 22.712 77.7429 23C78.0629 23.288 78.5055 23.432 79.0709 23.432C79.4122 23.432 79.7429 23.3733 80.0629 23.256C80.3829 23.128 80.7295 22.936 81.1029 22.68L82.1429 24.088C81.1509 24.8773 80.0469 25.272 78.8309 25.272C77.4549 25.272 76.3989 24.8667 75.6629 24.056C74.9269 23.2453 74.5589 22.1573 74.5589 20.792C74.5589 19.928 74.7135 19.1547 75.0229 18.472C75.3322 17.7787 75.7855 17.2347 76.3829 16.84C76.9802 16.4347 77.6949 16.232 78.5269 16.232C79.7535 16.232 80.7135 16.616 81.4069 17.384C82.1002 18.152 82.4469 19.2187 82.4469 20.584ZM79.9669 19.864C79.9455 18.5627 79.4869 17.912 78.5909 17.912C78.1535 17.912 77.8122 18.072 77.5669 18.392C77.3322 18.712 77.1882 19.24 77.1349 19.976H79.9669V19.864ZM76.7189 12.216C77.0815 12.216 77.3855 12.3387 77.6309 12.584C77.8869 12.8293 78.0149 13.128 78.0149 13.48C78.0149 13.832 77.8869 14.1307 77.6309 14.376C77.3855 14.6213 77.0815 14.744 76.7189 14.744C76.3562 14.744 76.0469 14.6213 75.7909 14.376C75.5455 14.1307 75.4229 13.832 75.4229 13.48C75.4229 13.128 75.5455 12.8293 75.7909 12.584C76.0469 12.3387 76.3562 12.216 76.7189 12.216ZM80.4149 12.216C80.7882 12.216 81.0975 12.3387 81.3429 12.584C81.5882 12.8293 81.7109 13.128 81.7109 13.48C81.7109 13.832 81.5882 14.1307 81.3429 14.376C81.0975 14.6213 80.7882 14.744 80.4149 14.744C80.0629 14.744 79.7589 14.6213 79.5029 14.376C79.2575 14.1307 79.1349 13.832 79.1349 13.48C79.1349 13.128 79.2575 12.8293 79.5029 12.584C79.7589 12.3387 80.0629 12.216 80.4149 12.216ZM90.8468 16.504V25H88.3188V18.36H86.7028L86.5428 20.168C86.4254 21.416 86.2868 22.3493 86.1268 22.968C85.9774 23.576 85.7108 24.056 85.3268 24.408C84.9428 24.76 84.3561 25.0267 83.5668 25.208L82.9428 23.368C83.2948 23.208 83.5401 23.0427 83.6788 22.872C83.8281 22.6907 83.9401 22.408 84.0148 22.024C84.0894 21.6293 84.1588 20.968 84.2228 20.04L84.4788 16.504H90.8468ZM95.8118 19.144C97.1878 19.144 98.1904 19.3947 98.8198 19.896C99.4598 20.3867 99.7798 21.1173 99.7798 22.088C99.7798 23.0267 99.4491 23.7467 98.7878 24.248C98.1264 24.7493 97.2571 25 96.1798 25H92.8358V16.504H95.3638V19.144H95.8118ZM100.5 16.504H103.028V25H100.5V16.504ZM95.9078 23.336C96.7718 23.336 97.2038 22.904 97.2038 22.04C97.2038 21.6027 97.0918 21.2827 96.8678 21.08C96.6544 20.8667 96.2864 20.76 95.7638 20.76H95.3638V23.336H95.9078ZM112.48 25H110.08V21.976C110.08 21.3787 110.112 20.8133 110.176 20.28C110.24 19.7467 110.32 19.2987 110.416 18.936L107.584 25H105.008V16.504H107.424V19.576C107.424 20.1413 107.386 20.696 107.312 21.24C107.248 21.784 107.173 22.232 107.088 22.584L109.888 16.504H112.48V25ZM108.736 14.888C107.914 14.888 107.264 14.664 106.784 14.216C106.314 13.768 106.048 13.1707 105.984 12.424L107.376 12.168C107.472 12.5093 107.626 12.7547 107.84 12.904C108.064 13.0533 108.362 13.128 108.736 13.128C109.109 13.128 109.402 13.0533 109.616 12.904C109.84 12.7547 110.005 12.5093 110.112 12.168L111.504 12.424C111.44 13.1707 111.168 13.768 110.688 14.216C110.208 14.664 109.557 14.888 108.736 14.888ZM55.744 38.536C55.744 38.856 55.7867 39.0907 55.872 39.24C55.968 39.3893 56.1173 39.5013 56.32 39.576L55.792 41.224C55.2693 41.1813 54.8427 41.0693 54.512 40.888C54.1813 40.696 53.9253 40.3973 53.744 39.992C53.1893 40.8453 52.336 41.272 51.184 41.272C50.3413 41.272 49.6693 41.0267 49.168 40.536C48.6667 40.0453 48.416 39.4053 48.416 38.616C48.416 37.688 48.7573 36.9787 49.44 36.488C50.1227 35.9973 51.1093 35.752 52.4 35.752H53.264V35.384C53.264 34.8827 53.1573 34.5413 52.944 34.36C52.7307 34.168 52.3573 34.072 51.824 34.072C51.5467 34.072 51.2107 34.1147 50.816 34.2C50.4213 34.2747 50.016 34.3813 49.6 34.52L49.024 32.856C49.5573 32.6533 50.1013 32.4987 50.656 32.392C51.2213 32.2853 51.744 32.232 52.224 32.232C53.44 32.232 54.3307 32.4827 54.896 32.984C55.4613 33.4853 55.744 34.2373 55.744 35.24V38.536ZM51.92 39.464C52.496 39.464 52.944 39.192 53.264 38.648V37.144H52.64C52.064 37.144 51.632 37.2453 51.344 37.448C51.0667 37.6507 50.928 37.9653 50.928 38.392C50.928 38.7333 51.0133 39 51.184 39.192C51.3653 39.3733 51.6107 39.464 51.92 39.464ZM62.5736 41V34.376H60.2856V41H57.7576V32.504H65.1016V41H62.5736ZM74.4938 36.584C74.4938 36.936 74.4778 37.24 74.4458 37.496H69.1818C69.2671 38.2107 69.4698 38.712 69.7898 39C70.1098 39.288 70.5524 39.432 71.1178 39.432C71.4591 39.432 71.7898 39.3733 72.1098 39.256C72.4298 39.128 72.7764 38.936 73.1498 38.68L74.1898 40.088C73.1978 40.8773 72.0938 41.272 70.8778 41.272C69.5018 41.272 68.4458 40.8667 67.7098 40.056C66.9738 39.2453 66.6058 38.1573 66.6058 36.792C66.6058 35.928 66.7604 35.1547 67.0698 34.472C67.3791 33.7787 67.8324 33.2347 68.4298 32.84C69.0271 32.4347 69.7418 32.232 70.5738 32.232C71.8004 32.232 72.7604 32.616 73.4538 33.384C74.1471 34.152 74.4938 35.2187 74.4938 36.584ZM72.0138 35.864C71.9924 34.5627 71.5338 33.912 70.6378 33.912C70.2004 33.912 69.8591 34.072 69.6138 34.392C69.3791 34.712 69.2351 35.24 69.1818 35.976H72.0138V35.864ZM82.8936 32.504V41H80.3656V34.36H78.7496L78.5896 36.168C78.4723 37.416 78.3336 38.3493 78.1736 38.968C78.0243 39.576 77.7576 40.056 77.3736 40.408C76.9896 40.76 76.403 41.0267 75.6136 41.208L74.9896 39.368C75.3416 39.208 75.587 39.0427 75.7256 38.872C75.875 38.6907 75.987 38.408 76.0616 38.024C76.1363 37.6293 76.2056 36.968 76.2696 36.04L76.5256 32.504H82.8936ZM88.0186 35.144C89.3946 35.144 90.3973 35.3947 91.0266 35.896C91.6666 36.3867 91.9866 37.1173 91.9866 38.088C91.9866 39.0267 91.656 39.7467 90.9946 40.248C90.3333 40.7493 89.464 41 88.3866 41H84.8826V32.504H87.4106V35.144H88.0186ZM88.1146 39.336C88.9786 39.336 89.4106 38.904 89.4106 38.04C89.4106 37.6027 89.2986 37.2827 89.0746 37.08C88.8613 36.8667 88.4933 36.76 87.9706 36.76H87.4106V39.336H88.1146ZM96.922 32.232C97.5087 32.232 98.0367 32.3173 98.506 32.488C98.9753 32.6587 99.418 32.92 99.834 33.272L98.746 34.776C98.2127 34.3707 97.674 34.168 97.13 34.168C96.5647 34.168 96.138 34.376 95.85 34.792C95.562 35.208 95.418 35.88 95.418 36.808C95.418 37.704 95.562 38.3387 95.85 38.712C96.138 39.0853 96.554 39.272 97.098 39.272C97.386 39.272 97.6473 39.2293 97.882 39.144C98.1167 39.048 98.3993 38.8987 98.73 38.696L99.834 40.264C98.9913 40.936 98.0367 41.272 96.97 41.272C96.106 41.272 95.3593 41.0907 94.73 40.728C94.1007 40.3547 93.6153 39.8373 93.274 39.176C92.9327 38.504 92.762 37.72 92.762 36.824C92.762 35.928 92.9327 35.1333 93.274 34.44C93.6153 33.7467 94.1007 33.208 94.73 32.824C95.3593 32.4293 96.09 32.232 96.922 32.232ZM108.37 41H105.97V37.976C105.97 37.3787 106.002 36.8133 106.066 36.28C106.13 35.7467 106.21 35.2987 106.306 34.936L103.474 41H100.898V32.504H103.314V35.576C103.314 36.1413 103.277 36.696 103.202 37.24C103.138 37.784 103.064 38.232 102.978 38.584L105.778 32.504H108.37V41ZM115.215 41V37.624H112.879V41H110.351V32.504H112.879V35.752H115.215V32.504H117.743V41H115.215Z" fill="#333333"/>
<defs>
<radialGradient id="paint0_radial_170_7587" cx="0" cy="0" r="1" gradientUnits="userSpaceOnUse" gradientTransform="translate(17.6622 28.9901) rotate(12.2157) scale(20.6355 21.634)">
<stop stop-color="#FF931A" stop-opacity="0.7"/>
<stop offset="1" stop-color="#FF931A"/>
</radialGradient>
<linearGradient id="paint1_linear_170_7587" x1="17.8701" y1="20.6732" x2="29.7216" y2="43.9603" gradientUnits="userSpaceOnUse">
<stop stop-color="#F48201" stop-opacity="0.7"/>
<stop offset="1" stop-color="#F48201"/>
</linearGradient>
</defs>
</svg>
