<svg width="230" height="32" viewBox="0 0 230 32" fill="none" xmlns="http://www.w3.org/2000/svg">
<path d="M25.0229 22.5576C24.8945 24.1117 23.0035 22.2334 20.8666 21.4272C18.7813 19.9958 16.5896 19.1546 16.4608 17.6005C16.382 16.6495 16.4996 17.1315 19.6649 16.9208C22.2076 20.4363 24.488 21.4117 25.0229 22.5576Z" fill="#F9C44F"/>
<path d="M27.108 23.8732L27.4482 24.0682L27.8383 23.3878L27.4981 23.1928L27.108 23.8732ZM20.1831 16.5986C20.0844 16.4059 19.8481 16.3296 19.6553 16.4283C19.4625 16.527 19.3862 16.7633 19.4849 16.956L20.1831 16.5986ZM27.4981 23.1928C23.4423 20.8672 21.6455 19.4553 20.1831 16.5986L19.4849 16.956C21.0538 20.0207 23.0161 21.5269 27.108 23.8732L27.4981 23.1928Z" fill="#CA6B00"/>
<path d="M24.0973 22.1978C23.8808 22.8562 22.8823 22.8039 21.2025 22.2516C19.5226 21.6992 17.2623 20.5163 17.4788 19.8579C17.5806 19.5482 19.5621 19.5566 21.242 20.1089C22.9218 20.6613 24.3138 21.5394 24.0973 22.1978Z" fill="#9D0101"/>
<path d="M27.3375 23.6321C25.9869 25.8107 23.9414 27.5239 21.4893 28.5147C18.8691 29.5733 15.9432 29.7428 13.1942 28.9939C10.4454 28.245 8.04104 26.6235 6.37518 24.4C4.7096 22.1769 3.88121 19.4844 4.02276 16.7659C4.1643 14.0475 5.26753 11.4609 7.15403 9.43212C9.04085 7.40305 11.5994 6.05262 14.4101 5.60716C17.221 5.16169 20.1129 5.64849 22.6088 6.9865C25.013 8.27539 26.9094 10.2787 28.0142 12.6833C26.1431 14.1286 24.6001 15.109 22.9085 15.7822C21.1454 16.4838 19.1975 16.8609 16.5155 17.0591L15.6925 17.1199L16.2594 17.7195C18.0569 19.621 19.6524 20.8387 21.4651 21.7279C23.1469 22.5528 24.9996 23.0867 27.3375 23.6321Z" fill="url(#paint0_radial_130_10315)" stroke="#CA6B00" stroke-width="0.784314"/>
<path d="M13.7059 4.93137C14.4956 2.82827 15.3625 1.99156 18.4045 1.70758C18.4069 1.70735 18.4087 1.70997 18.4077 1.71217C17.0673 4.4504 16.0757 5.23004 13.7085 4.93565C13.7065 4.9354 13.7052 4.93327 13.7059 4.93137Z" fill="#1F980B" stroke="#1F980B" stroke-width="0.862745"/>
<path d="M12.1905 3.56376L13.6645 7.21337L13.3421 2.90019C13.3419 2.89789 13.3394 2.89655 13.3374 2.89771L12.1918 3.55986C12.1905 3.56065 12.1899 3.56231 12.1905 3.56376Z" fill="#954F00" stroke="#954F00" stroke-width="0.862745"/>
<path d="M12.7002 5.59796C10.6235 6.92001 9.31333 7.08194 6.4619 5.32719C6.45982 5.32591 6.45994 5.32273 6.46212 5.32162C9.43943 3.80592 10.8213 3.7761 12.7006 5.59297C12.7021 5.59438 12.7019 5.59687 12.7002 5.59796Z" fill="#1F980B" stroke="#1F980B" stroke-width="0.862745"/>
<circle cx="9.63667" cy="12.5423" r="0.140236" transform="rotate(-29.772 9.63667 12.5423)" fill="#FFC584"/>
<circle cx="7.5273" cy="11.5819" r="0.140236" transform="rotate(-29.772 7.5273 11.5819)" fill="#FFC584"/>
<circle cx="9.45698" cy="10.41" r="0.140236" transform="rotate(-29.772 9.45698 10.41)" fill="#FFC584"/>
<circle cx="12.2421" cy="9.77621" r="0.140236" transform="rotate(-29.772 12.2421 9.77621)" fill="#FFC584"/>
<circle cx="10.5253" cy="8.42123" r="0.140236" transform="rotate(-29.772 10.5253 8.42123)" fill="#FFC584"/>
<circle cx="11.7187" cy="11.1903" r="0.140236" transform="rotate(-29.772 11.7187 11.1903)" fill="#FFC584"/>
<circle cx="13.8769" cy="8.05209" r="0.140236" transform="rotate(-29.772 13.8769 8.05209)" fill="#FFC584"/>
<circle cx="9.67573" cy="14.0453" r="0.140236" transform="rotate(-29.772 9.67573 14.0453)" fill="#FFC584"/>
<circle cx="7.06441" cy="15.2347" r="0.140236" transform="rotate(-29.772 7.06441 15.2347)" fill="#FFC584"/>
<circle cx="7.85152" cy="13.2538" r="0.140236" transform="rotate(-29.772 7.85152 13.2538)" fill="#FFC584"/>
<circle cx="7.43355" cy="18.5858" r="0.140236" transform="rotate(-29.772 7.43355 18.5858)" fill="#FFC584"/>
<circle cx="8.78902" cy="16.8695" r="0.140236" transform="rotate(-29.772 8.78902 16.8695)" fill="#FFC584"/>
<circle cx="5.74019" cy="18.0702" r="0.140236" transform="rotate(-29.772 5.74019 18.0702)" fill="#FFC584"/>
<circle cx="8.63472" cy="21.6346" r="0.140236" transform="rotate(-29.772 8.63472 21.6346)" fill="#FFC584"/>
<circle cx="6.94136" cy="21.12" r="0.140236" transform="rotate(-29.772 6.94136 21.12)" fill="#FFC584"/>
<circle cx="8.98042" cy="24.1458" r="0.140236" transform="rotate(-29.772 8.98042 24.1458)" fill="#FFC584"/>
<circle cx="7.27925" cy="23.3514" r="0.140236" transform="rotate(-29.772 7.27925 23.3514)" fill="#FFC584"/>
<circle cx="10.3066" cy="21.3104" r="0.140236" transform="rotate(-29.772 10.3066 21.3104)" fill="#FFC584"/>
<circle cx="9.41402" cy="19.3734" r="0.140236" transform="rotate(-29.772 9.41402 19.3734)" fill="#FFC584"/>
<circle cx="12.0605" cy="24.0643" r="0.140236" transform="rotate(-29.772 12.0605 24.0643)" fill="#FFC584"/>
<circle cx="13.5253" cy="26.5462" r="0.140236" transform="rotate(-29.772 13.5253 26.5462)" fill="#FFC584"/>
<circle cx="10.3593" cy="23.2694" r="0.140236" transform="rotate(-29.772 10.3593 23.2694)" fill="#FFC584"/>
<circle cx="16.332" cy="26.7518" r="0.140236" transform="rotate(-29.772 16.332 26.7518)" fill="#FFC584"/>
<circle cx="10.9921" cy="26.0531" r="0.140236" transform="rotate(-29.772 10.9921 26.0531)" fill="#FFC584"/>
<path d="M20.2398 11.7879C20.1423 12.9681 18.0145 12.6798 17.4361 13.1699C16.9952 13.5435 16.4466 12.1249 16.5441 10.9446C16.6417 9.76439 17.4383 8.86691 18.3235 8.94004C19.2086 9.01318 20.3373 10.6076 20.2398 11.7879Z" fill="#FFF8F0"/>
<path d="M20.0898 11.4169C20.0167 12.3021 19.3954 12.7939 18.9036 12.7533C18.4118 12.7127 18.2358 12.1549 18.309 11.2698C18.3821 10.3846 18.8401 9.69993 19.3318 9.74056C19.8236 9.78119 20.163 10.5317 20.0898 11.4169Z" fill="#029DCE"/>
<ellipse cx="19.868" cy="11.9367" rx="0.536075" ry="0.714766" transform="rotate(4.72319 19.868 11.9367)" fill="black"/>
<path d="M16.5291 13.9458C17.8411 12.7796 18.6926 12.5081 21.2199 12.7268M17.2395 13.3769C14.198 8.71195 20.5126 6.66624 20.3461 12.6686" stroke="#482600" stroke-width="0.357383"/>
<path d="M18.5473 12.7241C17.7893 11.048 18.8121 9.51882 19.6878 9.77044" stroke="#482600" stroke-width="0.178692"/>
<ellipse cx="19.4994" cy="11.5151" rx="0.195644" ry="0.22567" transform="rotate(122.565 19.4994 11.5151)" fill="#FFF8F0"/>
<path d="M6.9184 5.47948C9.09669 4.92126 10.2809 4.92321 12.2465 5.7623" stroke="#1C770D" stroke-width="0.156863" stroke-linecap="round"/>
<path d="M14.187 5.18374C15.2676 3.49343 16.4394 2.64604 18.2365 1.85023" stroke="#1C770D" stroke-width="0.156863" stroke-linecap="round"/>
<path d="M50.22 23.68C49.46 23.68 48.7 23.6533 47.94 23.6C47.1933 23.56 46.4133 23.4533 45.6 23.28V9.84C46.24 9.72 46.94 9.63333 47.7 9.58C48.46 9.51333 49.1667 9.48 49.82 9.48C50.7 9.48 51.5067 9.54667 52.24 9.68C52.9867 9.8 53.6267 10.0133 54.16 10.32C54.6933 10.6267 55.1067 11.0333 55.4 11.54C55.7067 12.0333 55.86 12.6467 55.86 13.38C55.86 14.4867 55.3267 15.36 54.26 16C55.14 16.3333 55.74 16.7867 56.06 17.36C56.38 17.9333 56.54 18.58 56.54 19.3C56.54 20.7533 56.0067 21.8467 54.94 22.58C53.8867 23.3133 52.3133 23.68 50.22 23.68ZM48.64 17.46V21.04C48.8667 21.0667 49.1133 21.0867 49.38 21.1C49.6467 21.1133 49.94 21.12 50.26 21.12C51.1933 21.12 51.9467 20.9867 52.52 20.72C53.0933 20.4533 53.38 19.96 53.38 19.24C53.38 18.6 53.14 18.1467 52.66 17.88C52.18 17.6 51.4933 17.46 50.6 17.46H48.64ZM48.64 15.08H50.16C51.12 15.08 51.8067 14.96 52.22 14.72C52.6333 14.4667 52.84 14.0667 52.84 13.52C52.84 12.96 52.6267 12.5667 52.2 12.34C51.7733 12.1133 51.1467 12 50.32 12C50.0533 12 49.7667 12.0067 49.46 12.02C49.1533 12.02 48.88 12.0333 48.64 12.06V15.08ZM58.3375 18.32C58.3375 17.3867 58.4775 16.5733 58.7575 15.88C59.0508 15.1733 59.4308 14.5867 59.8975 14.12C60.3642 13.6533 60.8975 13.3 61.4975 13.06C62.1108 12.82 62.7375 12.7 63.3775 12.7C64.8708 12.7 66.0508 13.16 66.9175 14.08C67.7842 14.9867 68.2175 16.3267 68.2175 18.1C68.2175 18.2733 68.2108 18.4667 68.1975 18.68C68.1842 18.88 68.1708 19.06 68.1575 19.22H61.3975C61.4642 19.8333 61.7508 20.32 62.2575 20.68C62.7642 21.04 63.4442 21.22 64.2975 21.22C64.8442 21.22 65.3775 21.1733 65.8975 21.08C66.4308 20.9733 66.8642 20.8467 67.1975 20.7L67.5975 23.12C67.4375 23.2 67.2242 23.28 66.9575 23.36C66.6908 23.44 66.3908 23.5067 66.0575 23.56C65.7375 23.6267 65.3908 23.68 65.0175 23.72C64.6442 23.76 64.2708 23.78 63.8975 23.78C62.9508 23.78 62.1242 23.64 61.4175 23.36C60.7242 23.08 60.1442 22.7 59.6775 22.22C59.2242 21.7267 58.8842 21.1467 58.6575 20.48C58.4442 19.8133 58.3375 19.0933 58.3375 18.32ZM65.3375 17.18C65.3242 16.9267 65.2775 16.68 65.1975 16.44C65.1308 16.2 65.0175 15.9867 64.8575 15.8C64.7108 15.6133 64.5175 15.46 64.2775 15.34C64.0508 15.22 63.7642 15.16 63.4175 15.16C63.0842 15.16 62.7975 15.22 62.5575 15.34C62.3175 15.4467 62.1175 15.5933 61.9575 15.78C61.7975 15.9667 61.6708 16.1867 61.5775 16.44C61.4975 16.68 61.4375 16.9267 61.3975 17.18H65.3375ZM70.0172 18.24C70.0172 17.48 70.1372 16.7667 70.3772 16.1C70.6305 15.42 70.9905 14.8333 71.4572 14.34C71.9239 13.8333 72.4905 13.4333 73.1572 13.14C73.8239 12.8467 74.5839 12.7 75.4372 12.7C75.9972 12.7 76.5105 12.7533 76.9772 12.86C77.4439 12.9533 77.8972 13.0933 78.3372 13.28L77.7172 15.66C77.4372 15.5533 77.1305 15.46 76.7972 15.38C76.4639 15.3 76.0905 15.26 75.6772 15.26C74.7972 15.26 74.1372 15.5333 73.6972 16.08C73.2705 16.6267 73.0572 17.3467 73.0572 18.24C73.0572 19.1867 73.2572 19.92 73.6572 20.44C74.0705 20.96 74.7839 21.22 75.7972 21.22C76.1572 21.22 76.5439 21.1867 76.9572 21.12C77.3705 21.0533 77.7505 20.9467 78.0972 20.8L78.5172 23.24C78.1705 23.3867 77.7372 23.5133 77.2172 23.62C76.6972 23.7267 76.1239 23.78 75.4972 23.78C74.5372 23.78 73.7105 23.64 73.0172 23.36C72.3239 23.0667 71.7505 22.6733 71.2972 22.18C70.8572 21.6867 70.5305 21.1067 70.3172 20.44C70.1172 19.76 70.0172 19.0267 70.0172 18.24ZM80.0172 18.32C80.0172 17.3867 80.1572 16.5733 80.4372 15.88C80.7305 15.1733 81.1105 14.5867 81.5772 14.12C82.0439 13.6533 82.5772 13.3 83.1772 13.06C83.7905 12.82 84.4172 12.7 85.0572 12.7C86.5505 12.7 87.7305 13.16 88.5972 14.08C89.4639 14.9867 89.8972 16.3267 89.8972 18.1C89.8972 18.2733 89.8905 18.4667 89.8772 18.68C89.8639 18.88 89.8505 19.06 89.8372 19.22H83.0772C83.1439 19.8333 83.4305 20.32 83.9372 20.68C84.4439 21.04 85.1239 21.22 85.9772 21.22C86.5239 21.22 87.0572 21.1733 87.5772 21.08C88.1105 20.9733 88.5439 20.8467 88.8772 20.7L89.2772 23.12C89.1172 23.2 88.9039 23.28 88.6372 23.36C88.3705 23.44 88.0705 23.5067 87.7372 23.56C87.4172 23.6267 87.0705 23.68 86.6972 23.72C86.3239 23.76 85.9505 23.78 85.5772 23.78C84.6305 23.78 83.8039 23.64 83.0972 23.36C82.4039 23.08 81.8239 22.7 81.3572 22.22C80.9039 21.7267 80.5639 21.1467 80.3372 20.48C80.1239 19.8133 80.0172 19.0933 80.0172 18.32ZM87.0172 17.18C87.0039 16.9267 86.9572 16.68 86.8772 16.44C86.8105 16.2 86.6972 15.9867 86.5372 15.8C86.3905 15.6133 86.1972 15.46 85.9572 15.34C85.7305 15.22 85.4439 15.16 85.0972 15.16C84.7639 15.16 84.4772 15.22 84.2372 15.34C83.9972 15.4467 83.7972 15.5933 83.6372 15.78C83.4772 15.9667 83.3505 16.1867 83.2572 16.44C83.1772 16.68 83.1172 16.9267 83.0772 17.18H87.0172ZM82.8372 11.46C82.4239 11.46 82.0639 11.3267 81.7572 11.06C81.4505 10.78 81.2972 10.4067 81.2972 9.94C81.2972 9.47333 81.4505 9.10667 81.7572 8.84C82.0639 8.56 82.4239 8.42 82.8372 8.42C83.2505 8.42 83.6105 8.56 83.9172 8.84C84.2239 9.10667 84.3772 9.47333 84.3772 9.94C84.3772 10.4067 84.2239 10.78 83.9172 11.06C83.6105 11.3267 83.2505 11.46 82.8372 11.46ZM87.2972 11.46C86.8839 11.46 86.5239 11.3267 86.2172 11.06C85.9105 10.78 85.7572 10.4067 85.7572 9.94C85.7572 9.47333 85.9105 9.10667 86.2172 8.84C86.5239 8.56 86.8839 8.42 87.2972 8.42C87.7105 8.42 88.0705 8.56 88.3772 8.84C88.6839 9.10667 88.8372 9.47333 88.8372 9.94C88.8372 10.4067 88.6839 10.78 88.3772 11.06C88.0705 11.3267 87.7105 11.46 87.2972 11.46ZM96.9169 15.42C96.9035 15.8067 96.8835 16.22 96.8569 16.66C96.8435 17.0867 96.8102 17.52 96.7569 17.96C96.7035 18.3867 96.6302 18.8067 96.5369 19.22C96.4569 19.6333 96.3502 20.02 96.2169 20.38C96.0569 20.8067 95.8502 21.2067 95.5969 21.58C95.3569 21.94 95.0435 22.2667 94.6569 22.56C94.2835 22.8533 93.8235 23.1 93.2769 23.3C92.7435 23.4867 92.1169 23.6133 91.3969 23.68L90.9969 21.2C91.6769 21.0667 92.2035 20.88 92.5769 20.64C92.9502 20.3867 93.2302 20.0667 93.4169 19.68C93.5635 19.3467 93.6769 18.96 93.7569 18.52C93.8502 18.08 93.9169 17.62 93.9569 17.14C93.9969 16.6467 94.0169 16.1467 94.0169 15.64C94.0302 15.1333 94.0369 14.6467 94.0369 14.18V12.98H101.937V23.5H98.9569V15.42H96.9169ZM118.416 23.5H115.436V12.98H118.416V23.5ZM109.196 21.42C109.743 21.42 110.169 21.32 110.476 21.12C110.796 20.9067 110.956 20.5667 110.956 20.1C110.956 19.86 110.903 19.66 110.796 19.5C110.689 19.3267 110.543 19.1933 110.356 19.1C110.169 18.9933 109.949 18.92 109.696 18.88C109.456 18.84 109.196 18.82 108.916 18.82C108.716 18.82 108.496 18.8333 108.256 18.86C108.016 18.8867 107.836 18.9133 107.716 18.94V21.34C107.876 21.3667 108.089 21.3867 108.356 21.4C108.623 21.4133 108.903 21.42 109.196 21.42ZM107.716 16.72C107.903 16.6667 108.143 16.6267 108.436 16.6C108.743 16.56 109.089 16.54 109.476 16.54C110.089 16.54 110.663 16.6133 111.196 16.76C111.743 16.9067 112.216 17.1333 112.616 17.44C113.016 17.7333 113.329 18.1133 113.556 18.58C113.796 19.0333 113.916 19.5667 113.916 20.18C113.916 20.7933 113.809 21.3267 113.596 21.78C113.383 22.22 113.076 22.5867 112.676 22.88C112.276 23.16 111.796 23.3667 111.236 23.5C110.689 23.6467 110.076 23.72 109.396 23.72C108.516 23.72 107.709 23.6733 106.976 23.58C106.243 23.5 105.496 23.3667 104.736 23.18V12.98H107.716V16.72ZM130.8 12.98V23.5H127.8C127.8 22.8333 127.807 22.1733 127.82 21.52C127.834 20.8533 127.847 20.24 127.86 19.68C127.874 19.12 127.887 18.6333 127.9 18.22C127.927 17.7933 127.94 17.48 127.94 17.28C127.554 17.8267 127.167 18.38 126.78 18.94C126.394 19.5 126.02 20.0533 125.66 20.6C125.314 21.1333 124.98 21.6467 124.66 22.14C124.354 22.6333 124.08 23.0867 123.84 23.5H121.22V12.98H124.2C124.2 13.6467 124.194 14.2867 124.18 14.9C124.18 15.5 124.174 16.0467 124.16 16.54C124.147 17.0333 124.134 17.4667 124.12 17.84C124.107 18.2 124.1 18.48 124.1 18.68C124.9 17.5067 125.634 16.4533 126.3 15.52C126.98 14.5867 127.64 13.74 128.28 12.98H130.8ZM126.06 11.54C125.634 11.54 125.22 11.48 124.82 11.36C124.434 11.2267 124.08 11.04 123.76 10.8C123.44 10.5467 123.174 10.2467 122.96 9.9C122.76 9.54 122.64 9.13333 122.6 8.68L124.66 8.14C124.767 8.64667 124.94 9.00667 125.18 9.22C125.434 9.43333 125.727 9.54 126.06 9.54C126.407 9.54 126.7 9.44667 126.94 9.26C127.194 9.06 127.374 8.69333 127.48 8.16L129.52 8.7C129.48 9.15333 129.354 9.56 129.14 9.92C128.94 10.2667 128.68 10.56 128.36 10.8C128.054 11.04 127.7 11.2267 127.3 11.36C126.9 11.48 126.487 11.54 126.06 11.54Z" fill="#1A1A1A"/>
<path d="M142.428 21.42C142.721 21.42 143.001 21.4133 143.268 21.4C143.534 21.3867 143.748 21.3667 143.908 21.34V19.08C143.788 19.0533 143.608 19.0267 143.368 19C143.128 18.9733 142.908 18.96 142.708 18.96C142.428 18.96 142.161 18.98 141.908 19.02C141.668 19.0467 141.454 19.1067 141.268 19.2C141.081 19.2933 140.934 19.42 140.828 19.58C140.721 19.74 140.668 19.94 140.668 20.18C140.668 20.6467 140.821 20.9733 141.128 21.16C141.448 21.3333 141.881 21.42 142.428 21.42ZM142.188 12.7C143.068 12.7 143.801 12.8 144.388 13C144.974 13.2 145.441 13.4867 145.788 13.86C146.148 14.2333 146.401 14.6867 146.548 15.22C146.694 15.7533 146.768 16.3467 146.768 17V23.2C146.341 23.2933 145.748 23.4 144.988 23.52C144.228 23.6533 143.308 23.72 142.228 23.72C141.548 23.72 140.928 23.66 140.368 23.54C139.821 23.42 139.348 23.2267 138.948 22.96C138.548 22.68 138.241 22.32 138.028 21.88C137.814 21.44 137.708 20.9 137.708 20.26C137.708 19.6467 137.828 19.1267 138.068 18.7C138.321 18.2733 138.654 17.9333 139.068 17.68C139.481 17.4267 139.954 17.2467 140.488 17.14C141.021 17.02 141.574 16.96 142.148 16.96C142.534 16.96 142.874 16.98 143.168 17.02C143.474 17.0467 143.721 17.0867 143.908 17.14V16.86C143.908 16.3533 143.754 15.9467 143.448 15.64C143.141 15.3333 142.608 15.18 141.848 15.18C141.341 15.18 140.841 15.22 140.348 15.3C139.854 15.3667 139.428 15.4667 139.068 15.6L138.688 13.2C138.861 13.1467 139.074 13.0933 139.328 13.04C139.594 12.9733 139.881 12.92 140.188 12.88C140.494 12.8267 140.814 12.7867 141.148 12.76C141.494 12.72 141.841 12.7 142.188 12.7ZM158.523 12.98V23.5H155.543V15.46H152.443V23.5H149.463V12.98H158.523ZM160.818 18.32C160.818 17.3867 160.958 16.5733 161.238 15.88C161.531 15.1733 161.911 14.5867 162.378 14.12C162.845 13.6533 163.378 13.3 163.978 13.06C164.591 12.82 165.218 12.7 165.858 12.7C167.351 12.7 168.531 13.16 169.398 14.08C170.265 14.9867 170.698 16.3267 170.698 18.1C170.698 18.2733 170.691 18.4667 170.678 18.68C170.665 18.88 170.651 19.06 170.638 19.22H163.878C163.945 19.8333 164.231 20.32 164.738 20.68C165.245 21.04 165.925 21.22 166.778 21.22C167.325 21.22 167.858 21.1733 168.378 21.08C168.911 20.9733 169.345 20.8467 169.678 20.7L170.078 23.12C169.918 23.2 169.705 23.28 169.438 23.36C169.171 23.44 168.871 23.5067 168.538 23.56C168.218 23.6267 167.871 23.68 167.498 23.72C167.125 23.76 166.751 23.78 166.378 23.78C165.431 23.78 164.605 23.64 163.898 23.36C163.205 23.08 162.625 22.7 162.158 22.22C161.705 21.7267 161.365 21.1467 161.138 20.48C160.925 19.8133 160.818 19.0933 160.818 18.32ZM167.818 17.18C167.805 16.9267 167.758 16.68 167.678 16.44C167.611 16.2 167.498 15.9867 167.338 15.8C167.191 15.6133 166.998 15.46 166.758 15.34C166.531 15.22 166.245 15.16 165.898 15.16C165.565 15.16 165.278 15.22 165.038 15.34C164.798 15.4467 164.598 15.5933 164.438 15.78C164.278 15.9667 164.151 16.1867 164.058 16.44C163.978 16.68 163.918 16.9267 163.878 17.18H167.818ZM177.718 15.42C177.704 15.8067 177.684 16.22 177.658 16.66C177.644 17.0867 177.611 17.52 177.558 17.96C177.504 18.3867 177.431 18.8067 177.338 19.22C177.258 19.6333 177.151 20.02 177.018 20.38C176.858 20.8067 176.651 21.2067 176.398 21.58C176.158 21.94 175.844 22.2667 175.458 22.56C175.084 22.8533 174.624 23.1 174.078 23.3C173.544 23.4867 172.918 23.6133 172.198 23.68L171.798 21.2C172.478 21.0667 173.004 20.88 173.378 20.64C173.751 20.3867 174.031 20.0667 174.218 19.68C174.364 19.3467 174.478 18.96 174.558 18.52C174.651 18.08 174.718 17.62 174.758 17.14C174.798 16.6467 174.818 16.1467 174.818 15.64C174.831 15.1333 174.838 14.6467 174.838 14.18V12.98H182.738V23.5H179.758V15.42H177.718ZM189.997 21.42C190.543 21.42 190.97 21.32 191.277 21.12C191.597 20.9067 191.757 20.5667 191.757 20.1C191.757 19.86 191.703 19.66 191.597 19.5C191.49 19.3267 191.343 19.1933 191.157 19.1C190.97 18.9933 190.75 18.92 190.497 18.88C190.257 18.84 189.997 18.82 189.717 18.82C189.517 18.82 189.297 18.8333 189.057 18.86C188.817 18.8867 188.637 18.9133 188.517 18.94V21.34C188.677 21.3667 188.89 21.3867 189.157 21.4C189.423 21.4133 189.703 21.42 189.997 21.42ZM188.517 16.72C188.703 16.6667 188.943 16.6267 189.237 16.6C189.543 16.56 189.89 16.54 190.277 16.54C190.903 16.54 191.483 16.6133 192.017 16.76C192.563 16.9067 193.037 17.1333 193.437 17.44C193.837 17.7333 194.15 18.1133 194.377 18.58C194.603 19.0333 194.717 19.5667 194.717 20.18C194.717 20.7933 194.61 21.3267 194.397 21.78C194.183 22.22 193.877 22.5867 193.477 22.88C193.077 23.16 192.597 23.3667 192.037 23.5C191.49 23.6467 190.877 23.72 190.197 23.72C189.317 23.72 188.51 23.6733 187.777 23.58C187.043 23.5 186.297 23.3667 185.537 23.18V12.98H188.517V16.72ZM196.326 18.24C196.326 17.48 196.446 16.7667 196.686 16.1C196.939 15.42 197.299 14.8333 197.766 14.34C198.232 13.8333 198.799 13.4333 199.466 13.14C200.132 12.8467 200.892 12.7 201.746 12.7C202.306 12.7 202.819 12.7533 203.286 12.86C203.752 12.9533 204.206 13.0933 204.646 13.28L204.026 15.66C203.746 15.5533 203.439 15.46 203.106 15.38C202.772 15.3 202.399 15.26 201.986 15.26C201.106 15.26 200.446 15.5333 200.006 16.08C199.579 16.6267 199.366 17.3467 199.366 18.24C199.366 19.1867 199.566 19.92 199.966 20.44C200.379 20.96 201.092 21.22 202.106 21.22C202.466 21.22 202.852 21.1867 203.266 21.12C203.679 21.0533 204.059 20.9467 204.406 20.8L204.826 23.24C204.479 23.3867 204.046 23.5133 203.526 23.62C203.006 23.7267 202.432 23.78 201.806 23.78C200.846 23.78 200.019 23.64 199.326 23.36C198.632 23.0667 198.059 22.6733 197.606 22.18C197.166 21.6867 196.839 21.1067 196.626 20.44C196.426 19.76 196.326 19.0267 196.326 18.24ZM216.406 12.98V23.5H213.406C213.406 22.8333 213.412 22.1733 213.426 21.52C213.439 20.8533 213.452 20.24 213.466 19.68C213.479 19.12 213.492 18.6333 213.506 18.22C213.532 17.7933 213.546 17.48 213.546 17.28C213.159 17.8267 212.772 18.38 212.386 18.94C211.999 19.5 211.626 20.0533 211.266 20.6C210.919 21.1333 210.586 21.6467 210.266 22.14C209.959 22.6333 209.686 23.0867 209.446 23.5H206.826V12.98H209.806C209.806 13.6467 209.799 14.2867 209.786 14.9C209.786 15.5 209.779 16.0467 209.766 16.54C209.752 17.0333 209.739 17.4667 209.726 17.84C209.712 18.2 209.706 18.48 209.706 18.68C210.506 17.5067 211.239 16.4533 211.906 15.52C212.586 14.5867 213.246 13.74 213.886 12.98H216.406ZM228.269 23.5H225.289V19.34H222.189V23.5H219.209V12.98H222.189V16.9H225.289V12.98H228.269V23.5Z" fill="#FF8700"/>
<defs>
<radialGradient id="paint0_radial_130_10315" cx="0" cy="0" r="1" gradientUnits="userSpaceOnUse" gradientTransform="translate(16.0055 17.4056) rotate(94.7232) scale(12.3922)">
<stop stop-color="#FFB868"/>
<stop offset="1" stop-color="#FD8600"/>
</radialGradient>
</defs>
</svg>
