<svg width="14" height="10" viewBox="0 0 14 10" fill="none" xmlns="http://www.w3.org/2000/svg">
  <path d="M4.48879 7.20117L11.8969 0.320699C12.1271 0.106899 12.42 0 12.7758 0C13.1315 0 13.4245 0.106899 13.6547 0.320699C13.8849 0.534499 14 0.806608 14 1.13703C14 1.46744 13.8849 1.73955 13.6547 1.95335L5.36771 9.65015C5.11659 9.88338 4.82362 10 4.48879 10C4.15396 10 3.86099 9.88338 3.60987 9.65015L0.345291 6.61808C0.115097 6.40428 0 6.13217 0 5.80175C0 5.47133 0.115097 5.19922 0.345291 4.98542C0.575485 4.77162 0.86846 4.66472 1.22422 4.66472C1.57997 4.66472 1.87294 4.77162 2.10314 4.98542L4.48879 7.20117Z" fill="white"/>
</svg>
