<svg width="44" height="41" viewBox="0 0 44 41" fill="currentColor" xmlns="http://www.w3.org/2000/svg">
<path d="M22.5084 33.3167L21.9994 33.0156L21.4904 33.3167L11.1495 39.4317L11.1391 39.4379L11.1287 39.4443C10.8395 39.625 10.5743 39.6845 10.3073 39.6627C9.98711 39.6365 9.73625 39.537 9.52445 39.3753C9.27631 39.1859 9.08532 38.9528 8.94524 38.6648C8.85196 38.4718 8.81455 38.2321 8.89414 37.8928C8.89422 37.8924 8.89429 37.8921 8.89436 37.8918L11.6349 26.3363L11.7764 25.7396L11.3086 25.3429L2.15985 17.584C1.88313 17.3375 1.75438 17.1003 1.70397 16.8704L1.70308 16.8664C1.6404 16.5861 1.6582 16.3244 1.7571 16.0574C1.86983 15.7531 2.02659 15.5327 2.21848 15.3679C2.3612 15.2453 2.6121 15.1178 3.05147 15.0528L15.1081 14.0157L15.705 13.9643L15.9414 13.4138L20.6134 2.52904L20.615 2.52532C20.7417 2.22676 20.9187 2.03585 21.1498 1.90645L21.1512 1.90565C21.4511 1.73711 21.7298 1.66699 21.9994 1.66699C22.2688 1.66699 22.5487 1.73708 22.8507 1.90607C23.08 2.03509 23.2567 2.22595 23.3837 2.52532L23.3853 2.52903L28.0574 13.4138L28.2937 13.9643L28.8906 14.0157L40.9473 15.0528C41.3866 15.1178 41.6375 15.2453 41.7803 15.3679C41.9721 15.5327 42.1289 15.7531 42.2416 16.0574C42.3409 16.3253 42.3592 16.588 42.2976 16.8688C42.2458 17.0998 42.1156 17.3375 41.8389 17.5839L32.6901 25.3429L32.2224 25.7396L32.3639 26.3363L35.1044 37.8918C35.1045 37.8923 35.1046 37.8927 35.1047 37.8931C35.1842 38.2324 35.1467 38.4722 35.0533 38.6651C34.9133 38.953 34.7223 39.1859 34.4743 39.3753C34.2625 39.537 34.0116 39.6365 33.6914 39.6627C33.4244 39.6845 33.1593 39.625 32.87 39.4443L32.8597 39.4379L32.8492 39.4317L22.5084 33.3167Z" fill="currentColor" stroke="currentColor" stroke-width="0"/>
</svg>
