<svg width="34" height="24" viewBox="0 0 34 24" fill="none" xmlns="http://www.w3.org/2000/svg">
<path d="M26 21.75C25.4033 21.75 24.831 21.5129 24.409 21.091C23.9871 20.669 23.75 20.0967 23.75 19.5C23.75 18.9033 23.9871 18.331 24.409 17.909C24.831 17.4871 25.4033 17.25 26 17.25C26.5967 17.25 27.169 17.4871 27.591 17.909C28.0129 18.331 28.25 18.9033 28.25 19.5C28.25 20.0967 28.0129 20.669 27.591 21.091C27.169 21.5129 26.5967 21.75 26 21.75ZM26.75 8.25C29.75 8.25 31.19 12 31.19 12H26C25.1716 12 24.5 11.3284 24.5 10.5V8.25M8 21.75C7.40326 21.75 6.83097 21.5129 6.40901 21.091C5.98705 20.669 5.75 20.0967 5.75 19.5C5.75 18.9033 5.98705 18.331 6.40901 17.909C6.83097 17.4871 7.40326 17.25 8 17.25C8.59674 17.25 9.16903 17.4871 9.59099 17.909C10.0129 18.331 10.25 18.9033 10.25 19.5C10.25 20.0967 10.0129 20.669 9.59099 21.091C9.16903 21.5129 8.59674 21.75 8 21.75ZM30.8 8.4C29.6669 6.88916 27.8885 6 26 6H24.5C24.5 6 24.5 4.5 24.5 3C24.5 1.5 23 0 21.5 0C20 0 3.5 0 3.5 0C1.835 0 0.5 1.335 0.5 3V18C0.5 18.8284 1.17157 19.5 2 19.5H3.5C3.5 20.6935 3.97411 21.8381 4.81802 22.682C5.66193 23.5259 6.80653 24 8 24C9.19347 24 10.3381 23.5259 11.182 22.682C12.0259 21.8381 12.5 20.6935 12.5 19.5H21.5C21.5 20.6935 21.9741 21.8381 22.818 22.682C23.6619 23.5259 24.8065 24 26 24C27.1935 24 28.3381 23.5259 29.182 22.682C30.0259 21.8381 30.5 20.6935 30.5 19.5H32C32.8284 19.5 33.5 18.8284 33.5 18V13.5C33.5 12.5263 33.1842 11.5789 32.6 10.8L30.8 8.4Z" fill="#FF8700"/>
</svg>
