<svg width="24" height="24" viewBox="0 0 24 24" fill="none" xmlns="http://www.w3.org/2000/svg">
<path d="M0.984375 24H6C6.65625 24 6.98438 23.6719 6.98438 23.0156C6.98438 22.3281 6.65625 21.9844 6 21.9844H3.42188L9.70312 15.7031C10.1094 15.2344 10.1094 14.7656 9.70312 14.2969C9.23438 13.8906 8.76562 13.8906 8.29688 14.2969L2.01562 20.5781V18C2.01562 17.3438 1.67188 17.0156 0.984375 17.0156C0.328125 17.0156 0 17.3438 0 18V23.0156C0 23.2969 0.09375 23.5312 0.28125 23.7188C0.46875 23.9062 0.703125 24 0.984375 24ZM23.0156 0H18C17.3438 0 17.0156 0.328125 17.0156 0.984375C17.0156 1.67188 17.3438 2.01562 18 2.01562H20.5781L14.2969 8.29688C13.8906 8.76562 13.8906 9.23438 14.2969 9.70312C14.4844 9.89062 14.7188 9.98438 15 9.98438C15.2812 9.98438 15.5156 9.89062 15.7031 9.70312L21.9844 3.42188V6C21.9844 6.65625 22.3281 6.98438 23.0156 6.98438C23.6719 6.98438 24 6.65625 24 6V0.984375C24 0.703125 23.9062 0.46875 23.7188 0.28125C23.5312 0.09375 23.2969 0 23.0156 0Z" fill="#FF8700"/>
</svg>
