<svg width="28" height="30" viewBox="0 0 28 30" fill="none" xmlns="http://www.w3.org/2000/svg">
<path d="M17 14.25C17.4925 14.25 17.9801 14.153 18.4351 13.9645C18.89 13.7761 19.3034 13.4999 19.6516 13.1517C19.9999 12.8034 20.2761 12.39 20.4645 11.9351C20.653 11.4801 20.75 10.9925 20.75 10.5C20.75 9.50544 20.3549 8.55161 19.6516 7.84835C18.9484 7.14509 17.9946 6.75 17 6.75C16.0054 6.75 15.0516 7.14509 14.3483 7.84835C13.6451 8.55161 13.25 9.50544 13.25 10.5C13.25 10.9925 13.347 11.4801 13.5355 11.9351C13.7239 12.39 14.0001 12.8034 14.3483 13.1517C15.0516 13.8549 16.0054 14.25 17 14.25ZM17 0C22.79 0 27.5 4.695 27.5 10.5C27.5 18.375 17 30 17 30C17 30 6.5 18.375 6.5 10.5C6.5 7.71523 7.60625 5.04451 9.57538 3.07538C11.5445 1.10625 14.2152 0 17 0ZM3.5 10.5C3.5 17.25 11.12 26.49 12.5 28.215L11 30C11 30 0.5 18.375 0.5 10.5C0.5 5.745 3.665 1.725 8 0.435C5.24 2.91 3.5 6.495 3.5 10.5Z" fill="#FF8700"/>
</svg>
