<svg width="20" height="19" viewBox="0 0 20 19" fill="none" xmlns="http://www.w3.org/2000/svg">
  <path d="M9.13209 16.2322L9.13101 16.2312C6.59389 13.9163 4.54821 12.0457 3.12804 10.2975C1.71626 8.55967 1 7.03378 1 5.42094C1 2.78612 3.03827 0.75 5.63775 0.75C7.1138 0.75 8.54419 1.44527 9.47531 2.53684L10.0459 3.20577L10.6165 2.53684C11.5476 1.44527 12.978 0.75 14.4541 0.75C17.0536 0.75 19.0918 2.78612 19.0918 5.42094C19.0918 7.03378 18.3756 8.55967 16.9638 10.2975C15.5436 12.0457 13.4979 13.9163 10.9608 16.2312L10.9597 16.2322L10.0459 17.0692L9.13209 16.2322Z" fill="inherit" stroke="inherit" stroke-width="1.5"/>
</svg>
