<svg width="242" height="40" viewBox="0 0 242 40" fill="none" xmlns="http://www.w3.org/2000/svg">
<path d="M5.85786 5.85787C9.12972 2.58601 13.4348 0.549844 18.0396 0.0963065C22.6445 -0.357231 27.2641 0.79992 31.1114 3.3706C34.9587 5.94127 37.7956 9.76642 39.1388 14.1943C40.482 18.6221 40.2483 23.3787 38.4776 27.6536C36.7069 31.9285 33.5087 35.4572 29.428 37.6384C25.3472 39.8196 20.6364 40.5184 16.0982 39.6157C11.5601 38.713 7.47525 36.2647 4.53983 32.6879C1.60442 29.1111 1.75408e-05 24.6272 1.43707e-10 20.0001L20 20L5.85786 5.85787Z" fill="#FF8700"/>
<path d="M62.22 27.68C61.46 27.68 60.7 27.6533 59.94 27.6C59.1933 27.56 58.4133 27.4533 57.6 27.28V13.84C58.24 13.72 58.94 13.6333 59.7 13.58C60.46 13.5133 61.1667 13.48 61.82 13.48C62.7 13.48 63.5067 13.5467 64.24 13.68C64.9867 13.8 65.6267 14.0133 66.16 14.32C66.6933 14.6267 67.1067 15.0333 67.4 15.54C67.7067 16.0333 67.86 16.6467 67.86 17.38C67.86 18.4867 67.3267 19.36 66.26 20C67.14 20.3333 67.74 20.7867 68.06 21.36C68.38 21.9333 68.54 22.58 68.54 23.3C68.54 24.7533 68.0067 25.8467 66.94 26.58C65.8867 27.3133 64.3133 27.68 62.22 27.68ZM60.64 21.46V25.04C60.8667 25.0667 61.1133 25.0867 61.38 25.1C61.6467 25.1133 61.94 25.12 62.26 25.12C63.1933 25.12 63.9467 24.9867 64.52 24.72C65.0933 24.4533 65.38 23.96 65.38 23.24C65.38 22.6 65.14 22.1467 64.66 21.88C64.18 21.6 63.4933 21.46 62.6 21.46H60.64ZM60.64 19.08H62.16C63.12 19.08 63.8067 18.96 64.22 18.72C64.6333 18.4667 64.84 18.0667 64.84 17.52C64.84 16.96 64.6267 16.5667 64.2 16.34C63.7733 16.1133 63.1467 16 62.32 16C62.0533 16 61.7667 16.0067 61.46 16.02C61.1533 16.02 60.88 16.0333 60.64 16.06V19.08ZM70.3375 22.32C70.3375 21.3867 70.4775 20.5733 70.7575 19.88C71.0508 19.1733 71.4308 18.5867 71.8975 18.12C72.3642 17.6533 72.8975 17.3 73.4975 17.06C74.1108 16.82 74.7375 16.7 75.3775 16.7C76.8708 16.7 78.0508 17.16 78.9175 18.08C79.7842 18.9867 80.2175 20.3267 80.2175 22.1C80.2175 22.2733 80.2108 22.4667 80.1975 22.68C80.1842 22.88 80.1708 23.06 80.1575 23.22H73.3975C73.4642 23.8333 73.7508 24.32 74.2575 24.68C74.7642 25.04 75.4442 25.22 76.2975 25.22C76.8442 25.22 77.3775 25.1733 77.8975 25.08C78.4308 24.9733 78.8642 24.8467 79.1975 24.7L79.5975 27.12C79.4375 27.2 79.2242 27.28 78.9575 27.36C78.6908 27.44 78.3908 27.5067 78.0575 27.56C77.7375 27.6267 77.3908 27.68 77.0175 27.72C76.6442 27.76 76.2708 27.78 75.8975 27.78C74.9508 27.78 74.1242 27.64 73.4175 27.36C72.7242 27.08 72.1442 26.7 71.6775 26.22C71.2242 25.7267 70.8842 25.1467 70.6575 24.48C70.4442 23.8133 70.3375 23.0933 70.3375 22.32ZM77.3375 21.18C77.3242 20.9267 77.2775 20.68 77.1975 20.44C77.1308 20.2 77.0175 19.9867 76.8575 19.8C76.7108 19.6133 76.5175 19.46 76.2775 19.34C76.0508 19.22 75.7642 19.16 75.4175 19.16C75.0842 19.16 74.7975 19.22 74.5575 19.34C74.3175 19.4467 74.1175 19.5933 73.9575 19.78C73.7975 19.9667 73.6708 20.1867 73.5775 20.44C73.4975 20.68 73.4375 20.9267 73.3975 21.18H77.3375ZM82.0172 22.24C82.0172 21.48 82.1372 20.7667 82.3772 20.1C82.6305 19.42 82.9905 18.8333 83.4572 18.34C83.9239 17.8333 84.4905 17.4333 85.1572 17.14C85.8239 16.8467 86.5839 16.7 87.4372 16.7C87.9972 16.7 88.5105 16.7533 88.9772 16.86C89.4439 16.9533 89.8972 17.0933 90.3372 17.28L89.7172 19.66C89.4372 19.5533 89.1305 19.46 88.7972 19.38C88.4639 19.3 88.0905 19.26 87.6772 19.26C86.7972 19.26 86.1372 19.5333 85.6972 20.08C85.2705 20.6267 85.0572 21.3467 85.0572 22.24C85.0572 23.1867 85.2572 23.92 85.6572 24.44C86.0705 24.96 86.7839 25.22 87.7972 25.22C88.1572 25.22 88.5439 25.1867 88.9572 25.12C89.3705 25.0533 89.7505 24.9467 90.0972 24.8L90.5172 27.24C90.1705 27.3867 89.7372 27.5133 89.2172 27.62C88.6972 27.7267 88.1239 27.78 87.4972 27.78C86.5372 27.78 85.7105 27.64 85.0172 27.36C84.3239 27.0667 83.7505 26.6733 83.2972 26.18C82.8572 25.6867 82.5305 25.1067 82.3172 24.44C82.1172 23.76 82.0172 23.0267 82.0172 22.24ZM92.0172 22.32C92.0172 21.3867 92.1572 20.5733 92.4372 19.88C92.7305 19.1733 93.1105 18.5867 93.5772 18.12C94.0439 17.6533 94.5772 17.3 95.1772 17.06C95.7905 16.82 96.4172 16.7 97.0572 16.7C98.5505 16.7 99.7305 17.16 100.597 18.08C101.464 18.9867 101.897 20.3267 101.897 22.1C101.897 22.2733 101.891 22.4667 101.877 22.68C101.864 22.88 101.851 23.06 101.837 23.22H95.0772C95.1439 23.8333 95.4305 24.32 95.9372 24.68C96.4439 25.04 97.1239 25.22 97.9772 25.22C98.5239 25.22 99.0572 25.1733 99.5772 25.08C100.111 24.9733 100.544 24.8467 100.877 24.7L101.277 27.12C101.117 27.2 100.904 27.28 100.637 27.36C100.371 27.44 100.071 27.5067 99.7372 27.56C99.4172 27.6267 99.0705 27.68 98.6972 27.72C98.3239 27.76 97.9505 27.78 97.5772 27.78C96.6305 27.78 95.8039 27.64 95.0972 27.36C94.4039 27.08 93.8239 26.7 93.3572 26.22C92.9039 25.7267 92.5639 25.1467 92.3372 24.48C92.1239 23.8133 92.0172 23.0933 92.0172 22.32ZM99.0172 21.18C99.0039 20.9267 98.9572 20.68 98.8772 20.44C98.8105 20.2 98.6972 19.9867 98.5372 19.8C98.3905 19.6133 98.1972 19.46 97.9572 19.34C97.7305 19.22 97.4439 19.16 97.0972 19.16C96.7639 19.16 96.4772 19.22 96.2372 19.34C95.9972 19.4467 95.7972 19.5933 95.6372 19.78C95.4772 19.9667 95.3505 20.1867 95.2572 20.44C95.1772 20.68 95.1172 20.9267 95.0772 21.18H99.0172ZM94.8372 15.46C94.4239 15.46 94.0639 15.3267 93.7572 15.06C93.4505 14.78 93.2972 14.4067 93.2972 13.94C93.2972 13.4733 93.4505 13.1067 93.7572 12.84C94.0639 12.56 94.4239 12.42 94.8372 12.42C95.2505 12.42 95.6105 12.56 95.9172 12.84C96.2239 13.1067 96.3772 13.4733 96.3772 13.94C96.3772 14.4067 96.2239 14.78 95.9172 15.06C95.6105 15.3267 95.2505 15.46 94.8372 15.46ZM99.2972 15.46C98.8839 15.46 98.5239 15.3267 98.2172 15.06C97.9105 14.78 97.7572 14.4067 97.7572 13.94C97.7572 13.4733 97.9105 13.1067 98.2172 12.84C98.5239 12.56 98.8839 12.42 99.2972 12.42C99.7105 12.42 100.071 12.56 100.377 12.84C100.684 13.1067 100.837 13.4733 100.837 13.94C100.837 14.4067 100.684 14.78 100.377 15.06C100.071 15.3267 99.7105 15.46 99.2972 15.46ZM108.917 19.42C108.904 19.8067 108.884 20.22 108.857 20.66C108.844 21.0867 108.81 21.52 108.757 21.96C108.704 22.3867 108.63 22.8067 108.537 23.22C108.457 23.6333 108.35 24.02 108.217 24.38C108.057 24.8067 107.85 25.2067 107.597 25.58C107.357 25.94 107.044 26.2667 106.657 26.56C106.284 26.8533 105.824 27.1 105.277 27.3C104.744 27.4867 104.117 27.6133 103.397 27.68L102.997 25.2C103.677 25.0667 104.204 24.88 104.577 24.64C104.95 24.3867 105.23 24.0667 105.417 23.68C105.564 23.3467 105.677 22.96 105.757 22.52C105.85 22.08 105.917 21.62 105.957 21.14C105.997 20.6467 106.017 20.1467 106.017 19.64C106.03 19.1333 106.037 18.6467 106.037 18.18V16.98H113.937V27.5H110.957V19.42H108.917ZM130.416 27.5H127.436V16.98H130.416V27.5ZM121.196 25.42C121.743 25.42 122.169 25.32 122.476 25.12C122.796 24.9067 122.956 24.5667 122.956 24.1C122.956 23.86 122.903 23.66 122.796 23.5C122.689 23.3267 122.543 23.1933 122.356 23.1C122.169 22.9933 121.949 22.92 121.696 22.88C121.456 22.84 121.196 22.82 120.916 22.82C120.716 22.82 120.496 22.8333 120.256 22.86C120.016 22.8867 119.836 22.9133 119.716 22.94V25.34C119.876 25.3667 120.089 25.3867 120.356 25.4C120.623 25.4133 120.903 25.42 121.196 25.42ZM119.716 20.72C119.903 20.6667 120.143 20.6267 120.436 20.6C120.743 20.56 121.089 20.54 121.476 20.54C122.089 20.54 122.663 20.6133 123.196 20.76C123.743 20.9067 124.216 21.1333 124.616 21.44C125.016 21.7333 125.329 22.1133 125.556 22.58C125.796 23.0333 125.916 23.5667 125.916 24.18C125.916 24.7933 125.809 25.3267 125.596 25.78C125.383 26.22 125.076 26.5867 124.676 26.88C124.276 27.16 123.796 27.3667 123.236 27.5C122.689 27.6467 122.076 27.72 121.396 27.72C120.516 27.72 119.709 27.6733 118.976 27.58C118.243 27.5 117.496 27.3667 116.736 27.18V16.98H119.716V20.72ZM142.8 16.98V27.5H139.8C139.8 26.8333 139.807 26.1733 139.82 25.52C139.834 24.8533 139.847 24.24 139.86 23.68C139.874 23.12 139.887 22.6333 139.9 22.22C139.927 21.7933 139.94 21.48 139.94 21.28C139.554 21.8267 139.167 22.38 138.78 22.94C138.394 23.5 138.02 24.0533 137.66 24.6C137.314 25.1333 136.98 25.6467 136.66 26.14C136.354 26.6333 136.08 27.0867 135.84 27.5H133.22V16.98H136.2C136.2 17.6467 136.194 18.2867 136.18 18.9C136.18 19.5 136.174 20.0467 136.16 20.54C136.147 21.0333 136.134 21.4667 136.12 21.84C136.107 22.2 136.1 22.48 136.1 22.68C136.9 21.5067 137.634 20.4533 138.3 19.52C138.98 18.5867 139.64 17.74 140.28 16.98H142.8ZM138.06 15.54C137.634 15.54 137.22 15.48 136.82 15.36C136.434 15.2267 136.08 15.04 135.76 14.8C135.44 14.5467 135.174 14.2467 134.96 13.9C134.76 13.54 134.64 13.1333 134.6 12.68L136.66 12.14C136.767 12.6467 136.94 13.0067 137.18 13.22C137.434 13.4333 137.727 13.54 138.06 13.54C138.407 13.54 138.7 13.4467 138.94 13.26C139.194 13.06 139.374 12.6933 139.48 12.16L141.52 12.7C141.48 13.1533 141.354 13.56 141.14 13.92C140.94 14.2667 140.68 14.56 140.36 14.8C140.054 15.04 139.7 15.2267 139.3 15.36C138.9 15.48 138.487 15.54 138.06 15.54ZM154.428 25.42C154.721 25.42 155.001 25.4133 155.268 25.4C155.534 25.3867 155.748 25.3667 155.908 25.34V23.08C155.788 23.0533 155.608 23.0267 155.368 23C155.128 22.9733 154.908 22.96 154.708 22.96C154.428 22.96 154.161 22.98 153.908 23.02C153.668 23.0467 153.454 23.1067 153.268 23.2C153.081 23.2933 152.934 23.42 152.828 23.58C152.721 23.74 152.668 23.94 152.668 24.18C152.668 24.6467 152.821 24.9733 153.128 25.16C153.448 25.3333 153.881 25.42 154.428 25.42ZM154.188 16.7C155.068 16.7 155.801 16.8 156.388 17C156.974 17.2 157.441 17.4867 157.788 17.86C158.148 18.2333 158.401 18.6867 158.548 19.22C158.694 19.7533 158.768 20.3467 158.768 21V27.2C158.341 27.2933 157.748 27.4 156.988 27.52C156.228 27.6533 155.308 27.72 154.228 27.72C153.548 27.72 152.928 27.66 152.368 27.54C151.821 27.42 151.348 27.2267 150.948 26.96C150.548 26.68 150.241 26.32 150.028 25.88C149.814 25.44 149.708 24.9 149.708 24.26C149.708 23.6467 149.828 23.1267 150.068 22.7C150.321 22.2733 150.654 21.9333 151.068 21.68C151.481 21.4267 151.954 21.2467 152.488 21.14C153.021 21.02 153.574 20.96 154.148 20.96C154.534 20.96 154.874 20.98 155.168 21.02C155.474 21.0467 155.721 21.0867 155.908 21.14V20.86C155.908 20.3533 155.754 19.9467 155.448 19.64C155.141 19.3333 154.608 19.18 153.848 19.18C153.341 19.18 152.841 19.22 152.348 19.3C151.854 19.3667 151.428 19.4667 151.068 19.6L150.688 17.2C150.861 17.1467 151.074 17.0933 151.328 17.04C151.594 16.9733 151.881 16.92 152.188 16.88C152.494 16.8267 152.814 16.7867 153.148 16.76C153.494 16.72 153.841 16.7 154.188 16.7ZM170.523 16.98V27.5H167.543V19.46H164.443V27.5H161.463V16.98H170.523ZM172.818 22.32C172.818 21.3867 172.958 20.5733 173.238 19.88C173.531 19.1733 173.911 18.5867 174.378 18.12C174.845 17.6533 175.378 17.3 175.978 17.06C176.591 16.82 177.218 16.7 177.858 16.7C179.351 16.7 180.531 17.16 181.398 18.08C182.265 18.9867 182.698 20.3267 182.698 22.1C182.698 22.2733 182.691 22.4667 182.678 22.68C182.665 22.88 182.651 23.06 182.638 23.22H175.878C175.945 23.8333 176.231 24.32 176.738 24.68C177.245 25.04 177.925 25.22 178.778 25.22C179.325 25.22 179.858 25.1733 180.378 25.08C180.911 24.9733 181.345 24.8467 181.678 24.7L182.078 27.12C181.918 27.2 181.705 27.28 181.438 27.36C181.171 27.44 180.871 27.5067 180.538 27.56C180.218 27.6267 179.871 27.68 179.498 27.72C179.125 27.76 178.751 27.78 178.378 27.78C177.431 27.78 176.605 27.64 175.898 27.36C175.205 27.08 174.625 26.7 174.158 26.22C173.705 25.7267 173.365 25.1467 173.138 24.48C172.925 23.8133 172.818 23.0933 172.818 22.32ZM179.818 21.18C179.805 20.9267 179.758 20.68 179.678 20.44C179.611 20.2 179.498 19.9867 179.338 19.8C179.191 19.6133 178.998 19.46 178.758 19.34C178.531 19.22 178.245 19.16 177.898 19.16C177.565 19.16 177.278 19.22 177.038 19.34C176.798 19.4467 176.598 19.5933 176.438 19.78C176.278 19.9667 176.151 20.1867 176.058 20.44C175.978 20.68 175.918 20.9267 175.878 21.18H179.818ZM189.718 19.42C189.704 19.8067 189.684 20.22 189.658 20.66C189.644 21.0867 189.611 21.52 189.558 21.96C189.504 22.3867 189.431 22.8067 189.338 23.22C189.258 23.6333 189.151 24.02 189.018 24.38C188.858 24.8067 188.651 25.2067 188.398 25.58C188.158 25.94 187.844 26.2667 187.458 26.56C187.084 26.8533 186.624 27.1 186.078 27.3C185.544 27.4867 184.918 27.6133 184.198 27.68L183.798 25.2C184.478 25.0667 185.004 24.88 185.378 24.64C185.751 24.3867 186.031 24.0667 186.218 23.68C186.364 23.3467 186.478 22.96 186.558 22.52C186.651 22.08 186.718 21.62 186.758 21.14C186.798 20.6467 186.818 20.1467 186.818 19.64C186.831 19.1333 186.838 18.6467 186.838 18.18V16.98H194.738V27.5H191.758V19.42H189.718ZM201.997 25.42C202.543 25.42 202.97 25.32 203.277 25.12C203.597 24.9067 203.757 24.5667 203.757 24.1C203.757 23.86 203.703 23.66 203.597 23.5C203.49 23.3267 203.343 23.1933 203.157 23.1C202.97 22.9933 202.75 22.92 202.497 22.88C202.257 22.84 201.997 22.82 201.717 22.82C201.517 22.82 201.297 22.8333 201.057 22.86C200.817 22.8867 200.637 22.9133 200.517 22.94V25.34C200.677 25.3667 200.89 25.3867 201.157 25.4C201.423 25.4133 201.703 25.42 201.997 25.42ZM200.517 20.72C200.703 20.6667 200.943 20.6267 201.237 20.6C201.543 20.56 201.89 20.54 202.277 20.54C202.903 20.54 203.483 20.6133 204.017 20.76C204.563 20.9067 205.037 21.1333 205.437 21.44C205.837 21.7333 206.15 22.1133 206.377 22.58C206.603 23.0333 206.717 23.5667 206.717 24.18C206.717 24.7933 206.61 25.3267 206.397 25.78C206.183 26.22 205.877 26.5867 205.477 26.88C205.077 27.16 204.597 27.3667 204.037 27.5C203.49 27.6467 202.877 27.72 202.197 27.72C201.317 27.72 200.51 27.6733 199.777 27.58C199.043 27.5 198.297 27.3667 197.537 27.18V16.98H200.517V20.72ZM208.326 22.24C208.326 21.48 208.446 20.7667 208.686 20.1C208.939 19.42 209.299 18.8333 209.766 18.34C210.232 17.8333 210.799 17.4333 211.466 17.14C212.132 16.8467 212.892 16.7 213.746 16.7C214.306 16.7 214.819 16.7533 215.286 16.86C215.752 16.9533 216.206 17.0933 216.646 17.28L216.026 19.66C215.746 19.5533 215.439 19.46 215.106 19.38C214.772 19.3 214.399 19.26 213.986 19.26C213.106 19.26 212.446 19.5333 212.006 20.08C211.579 20.6267 211.366 21.3467 211.366 22.24C211.366 23.1867 211.566 23.92 211.966 24.44C212.379 24.96 213.092 25.22 214.106 25.22C214.466 25.22 214.852 25.1867 215.266 25.12C215.679 25.0533 216.059 24.9467 216.406 24.8L216.826 27.24C216.479 27.3867 216.046 27.5133 215.526 27.62C215.006 27.7267 214.432 27.78 213.806 27.78C212.846 27.78 212.019 27.64 211.326 27.36C210.632 27.0667 210.059 26.6733 209.606 26.18C209.166 25.6867 208.839 25.1067 208.626 24.44C208.426 23.76 208.326 23.0267 208.326 22.24ZM228.406 16.98V27.5H225.406C225.406 26.8333 225.412 26.1733 225.426 25.52C225.439 24.8533 225.452 24.24 225.466 23.68C225.479 23.12 225.492 22.6333 225.506 22.22C225.532 21.7933 225.546 21.48 225.546 21.28C225.159 21.8267 224.772 22.38 224.386 22.94C223.999 23.5 223.626 24.0533 223.266 24.6C222.919 25.1333 222.586 25.6467 222.266 26.14C221.959 26.6333 221.686 27.0867 221.446 27.5H218.826V16.98H221.806C221.806 17.6467 221.799 18.2867 221.786 18.9C221.786 19.5 221.779 20.0467 221.766 20.54C221.752 21.0333 221.739 21.4667 221.726 21.84C221.712 22.2 221.706 22.48 221.706 22.68C222.506 21.5067 223.239 20.4533 223.906 19.52C224.586 18.5867 225.246 17.74 225.886 16.98H228.406ZM240.269 27.5H237.289V23.34H234.189V27.5H231.209V16.98H234.189V20.9H237.289V16.98H240.269V27.5Z" fill="#333333"/>
</svg>
