<svg width="40" height="31" viewBox="0 0 40 31" fill="none" xmlns="http://www.w3.org/2000/svg">
<path d="M9.01887 28.893C9.01458 28.7636 9.03672 28.6347 9.08391 28.5143C9.13111 28.3938 9.20235 28.2845 9.29322 28.1929C9.38409 28.1014 9.49265 28.0296 9.61218 27.982C9.73171 27.9345 9.85966 27.9122 9.9881 27.9165C10.5835 27.9165 10.9558 28.3676 10.9558 28.893C10.9601 29.0224 10.9379 29.1513 10.8907 29.2718C10.8436 29.3922 10.7723 29.5016 10.6814 29.5931C10.5906 29.6847 10.482 29.7564 10.3625 29.804C10.2429 29.8515 10.115 29.8738 9.98656 29.8695C9.39118 29.9439 9.01887 29.4929 9.01887 28.893ZM11.5512 28.893V27.3167H10.8804V27.7662C10.759 27.6035 10.6017 27.4714 10.4209 27.3805C10.2402 27.2896 10.0409 27.2423 9.83887 27.2423C8.94502 27.2423 8.27425 27.9181 8.27425 28.893C8.27425 29.8695 8.94502 30.5438 9.83887 30.5438C10.285 30.5438 10.5835 30.3934 10.8066 30.0943V30.4694H11.4773V28.8915H11.5512V28.893ZM34.4189 28.893C34.4146 28.7636 34.4367 28.6347 34.4839 28.5143C34.5311 28.3938 34.6023 28.2845 34.6932 28.1929C34.7841 28.1014 34.8927 28.0296 35.0122 27.982C35.1317 27.9345 35.2597 27.9122 35.3881 27.9165C35.9835 27.9165 36.3558 28.3676 36.3558 28.893C36.3601 29.0224 36.3379 29.1513 36.2907 29.2718C36.2436 29.3922 36.1723 29.5016 36.0814 29.5931C35.9906 29.6847 35.882 29.7564 35.7625 29.804C35.6429 29.8515 35.515 29.8738 35.3866 29.8695C34.7158 29.9439 34.4189 29.4929 34.4189 28.893ZM36.8773 28.893V26.041H36.2066V27.7677C35.9835 27.467 35.6835 27.2407 35.2373 27.2407C34.345 27.2407 33.6743 27.9925 33.6743 28.893C33.6743 29.8695 34.3435 30.5438 35.2373 30.5438C35.6835 30.5438 35.9835 30.3934 36.2066 30.0943V30.4694H36.8773V28.8915V28.893ZM19.8927 27.9165C20.3404 27.9165 20.6389 28.2172 20.7127 28.6683H19.0743C19.1496 28.2188 19.4466 27.9181 19.8943 27.9181L19.8927 27.9165ZM19.9696 27.2423C19.0743 27.2423 18.4035 27.9181 18.4035 28.893C18.4035 29.8695 19.0743 30.5438 19.9681 30.5438C20.4143 30.5438 20.8619 30.3934 21.2343 30.0943L20.9373 29.5673C20.6816 29.7663 20.3666 29.8723 20.0435 29.868C19.5973 29.868 19.2235 29.6432 19.1496 29.1178H21.4573V28.893C21.3835 27.9165 20.7896 27.2423 19.9696 27.2423ZM28.0866 28.893C28.0823 28.7636 28.1044 28.6347 28.1516 28.5143C28.1988 28.3938 28.27 28.2845 28.3609 28.1929C28.4518 28.1014 28.5603 28.0296 28.6799 27.982C28.7994 27.9345 28.9274 27.9122 29.0558 27.9165C29.6512 27.9165 30.025 28.3676 30.025 28.893C30.0293 29.0224 30.0072 29.1513 29.96 29.2718C29.9128 29.3922 29.8415 29.5016 29.7507 29.5931C29.6598 29.6847 29.5512 29.7564 29.4317 29.804C29.3122 29.8515 29.1842 29.8738 29.0558 29.8695C28.4604 29.9439 28.0866 29.4929 28.0866 28.893ZM30.6204 28.893V27.3167H29.9496V27.7662C29.7266 27.467 29.4281 27.2423 28.9804 27.2423C28.0881 27.2423 27.4173 27.9181 27.4173 28.893C27.4173 29.8695 28.0866 30.5438 28.9804 30.5438C29.4281 30.5438 29.7266 30.3934 29.9496 30.0943V30.4694H30.6204V28.8915V28.893ZM24.2881 28.893C24.2881 29.8695 24.9589 30.5438 25.9266 30.5438C26.3727 30.5438 26.6727 30.4694 27.045 30.1687L26.7466 29.6432C26.5235 29.7936 26.225 29.9439 25.9266 29.9439C25.7982 29.948 25.6705 29.9255 25.5511 29.8779C25.4318 29.8303 25.3234 29.7585 25.2327 29.6669C25.142 29.5754 25.0709 29.4661 25.0238 29.3458C24.9767 29.2255 24.9546 29.0967 24.9589 28.9674C24.9589 28.3676 25.3312 27.9925 25.9281 27.9925C26.225 27.9925 26.5235 28.0684 26.7466 28.2932L27.045 27.7662C26.7466 27.3926 26.4481 27.2423 25.9266 27.2423C24.9589 27.2423 24.2881 27.9925 24.2881 28.893ZM33.0035 27.2423C32.6312 27.2423 32.3327 27.3926 32.1835 27.6918V27.3167H31.5143V30.4694H32.1835V28.7427C32.1835 28.2172 32.4081 27.9181 32.8543 27.9181C33.0035 27.9181 33.1527 27.9181 33.3004 27.9925L33.525 27.3926C33.3019 27.3167 33.1543 27.2423 33.0035 27.2423ZM14.9035 27.6174C14.605 27.3926 14.1589 27.3167 13.6373 27.3167C12.8173 27.3167 12.3712 27.6918 12.3712 28.2932C12.3712 28.8186 12.7435 29.1178 13.4143 29.1922L13.7112 29.2697C14.0835 29.3425 14.2343 29.4185 14.2343 29.5688C14.2343 29.7936 14.0096 29.9439 13.4881 29.9439C13.0419 29.9439 12.6681 29.7936 12.445 29.6432L12.1466 30.1702C12.5204 30.4694 12.9666 30.5438 13.4881 30.5438C14.3819 30.5438 14.9035 30.0943 14.9035 29.4929C14.9035 28.9674 14.5312 28.6683 13.7866 28.5939L13.4881 28.5164C13.1896 28.4435 12.9666 28.4435 12.9666 28.2172C12.9666 27.9925 13.1896 27.8421 13.5619 27.8421C13.9343 27.8421 14.3081 27.9925 14.5312 28.1428L14.9035 27.6174ZM23.6189 27.2423C23.2466 27.2423 22.9481 27.3926 22.7989 27.6918V27.3167H22.1281V30.4694H22.7989V28.7427C22.7989 28.2172 23.0219 27.9181 23.4696 27.9181C23.6173 27.9181 23.7666 27.9181 23.9158 27.9925L24.1389 27.3167C23.9158 27.3167 23.7666 27.2423 23.6189 27.2423ZM17.8081 27.3167H16.6912V26.3402H16.0204V27.3167H15.425V27.9925H16.0204V29.4185C16.0204 30.1687 16.3189 30.5438 17.1373 30.5438C17.4265 30.5501 17.7112 30.472 17.9573 30.319L17.7343 29.7192C17.5096 29.868 17.2881 29.868 17.1373 29.868C16.765 29.868 16.6912 29.6432 16.6912 29.3441V27.9925H17.8081V27.3167ZM7.75425 30.4694V28.5164C7.75425 27.7677 7.3081 27.2423 6.56194 27.2423C6.34876 27.241 6.13795 27.2875 5.94479 27.3783C5.75162 27.4692 5.58091 27.6022 5.44502 27.7677C5.32377 27.6042 5.16637 27.4715 4.98531 27.38C4.80424 27.2885 4.6045 27.2408 4.40194 27.2407C4.10502 27.2407 3.73271 27.3182 3.50964 27.6918V27.3167H2.83887V30.4694H3.5081V28.7427C3.5081 28.2172 3.80656 27.9181 4.25271 27.9181C4.69887 27.9181 4.92348 28.2172 4.92348 28.7427V30.4694H5.59425V28.7427C5.59425 28.2172 5.89271 27.9181 6.33887 27.9181C6.78502 27.9181 7.00964 28.2172 7.00964 28.7427V30.4694H7.75425Z" fill="#231F20"/>
<path d="M24.9426 22.0574H14.6934V3.50391H24.9426V22.0543V22.0574Z" fill="#FF5F00"/>
<path d="M15.3492 12.7443C15.3492 8.99326 17.0631 5.61426 19.8185 3.43806C17.8077 1.86326 15.2769 0.886756 12.5939 0.886756C11.057 0.882872 9.53462 1.18495 8.11403 1.77563C6.69344 2.36632 5.40269 3.23396 4.31592 4.32874C3.22916 5.42351 2.3678 6.72383 1.78132 8.15499C1.19485 9.58616 0.894821 11.12 0.898474 12.6683C0.894618 14.2168 1.1945 15.7507 1.78088 17.1821C2.36726 18.6134 3.22859 19.9139 4.31538 21.0089C5.40216 22.1038 6.69298 22.9716 8.11367 23.5624C9.53436 24.1532 11.0569 24.4553 12.5939 24.4514C15.3492 24.4514 17.8077 23.4749 19.8185 21.9001C17.0631 19.8727 15.3492 16.4968 15.3492 12.7443Z" fill="#EB001B"/>
<path d="M38.7696 12.7444C38.7733 14.2927 38.4732 15.8265 37.8868 17.2577C37.3003 18.6889 36.4389 19.9892 35.3522 21.084C34.2654 22.1787 32.9746 23.0464 31.5541 23.6371C30.1335 24.2278 28.611 24.5298 27.0742 24.526C24.3188 24.526 21.8604 23.5495 19.8496 21.9747C22.605 19.7985 24.3188 16.497 24.3188 12.67C24.3188 8.8415 22.605 5.54 19.8496 3.3638C21.8604 1.78745 24.3927 0.8125 27.0742 0.8125C33.4804 0.9613 38.7696 6.2158 38.7696 12.7444Z" fill="#F79E1B"/>
</svg>
