<svg width="18" height="24" viewBox="0 0 18 24" fill="none" xmlns="http://www.w3.org/2000/svg">
<path d="M17.5053 18.171L16.0003 16.666V10.8327C16.0003 7.25102 14.087 4.25268 10.7503 3.45935V2.66602C10.7503 1.69768 9.96864 0.916016 9.0003 0.916016C8.03197 0.916016 7.2503 1.69768 7.2503 2.66602V3.45935C3.90197 4.25268 2.0003 7.23935 2.0003 10.8327V16.666L0.495304 18.171C-0.239696 18.906 0.273637 20.166 1.31197 20.166H16.677C17.727 20.166 18.2403 18.906 17.5053 18.171ZM13.667 17.8327H4.33364V10.8327C4.33364 7.93935 6.0953 5.58268 9.0003 5.58268C11.9053 5.58268 13.667 7.93935 13.667 10.8327V17.8327ZM9.0003 23.666C10.2836 23.666 11.3336 22.616 11.3336 21.3327H6.66697C6.66697 21.9515 6.9128 22.545 7.35039 22.9826C7.78797 23.4202 8.38146 23.666 9.0003 23.666Z" fill="#333333"/>
</svg>
