<svg width="21" height="20" viewBox="0 0 21 20" fill="none" xmlns="http://www.w3.org/2000/svg">
<path d="M4.66667 17.5C4.20833 17.5 3.81583 17.3367 3.48917 17.01C3.1625 16.6833 2.99945 16.2911 3 15.8333V4.16667C3 3.70834 3.16333 3.31584 3.49 2.98917C3.81667 2.6625 4.20889 2.49945 4.66667 2.5H11.3333C11.5694 2.5 11.7675 2.58 11.9275 2.74C12.0875 2.9 12.1672 3.09778 12.1667 3.33334C12.1667 3.56945 12.0867 3.7675 11.9267 3.9275C11.7667 4.0875 11.5689 4.16723 11.3333 4.16667H4.66667V15.8333H16.3333V9.16667C16.3333 8.93056 16.4133 8.7325 16.5733 8.5725C16.7333 8.4125 16.9311 8.33278 17.1667 8.33334C17.4028 8.33334 17.6008 8.41334 17.7608 8.57334C17.9208 8.73334 18.0006 8.93111 18 9.16667V15.8333C18 16.2917 17.8367 16.6842 17.51 17.0108C17.1833 17.3375 16.7911 17.5006 16.3333 17.5H4.66667ZM15.5 7.5C15.2639 7.5 15.0658 7.42 14.9058 7.26C14.7458 7.1 14.6661 6.90222 14.6667 6.66667V5.83334H13.8333C13.5972 5.83334 13.3992 5.75334 13.2392 5.59334C13.0792 5.43334 12.9994 5.23556 13 5C13 4.76389 13.08 4.56584 13.24 4.40584C13.4 4.24584 13.5978 4.16611 13.8333 4.16667H14.6667V3.33334C14.6667 3.09723 14.7467 2.89917 14.9067 2.73917C15.0667 2.57917 15.2644 2.49945 15.5 2.5C15.7361 2.5 15.9342 2.58 16.0942 2.74C16.2542 2.9 16.3339 3.09778 16.3333 3.33334V4.16667H17.1667C17.4028 4.16667 17.6008 4.24667 17.7608 4.40667C17.9208 4.56667 18.0006 4.76445 18 5C18 5.23611 17.92 5.43417 17.76 5.59417C17.6 5.75417 17.4022 5.83389 17.1667 5.83334H16.3333V6.66667C16.3333 6.90278 16.2533 7.10084 16.0933 7.26084C15.9333 7.42084 15.7356 7.50056 15.5 7.5ZM6.33334 14.1667H14.6667C14.8333 14.1667 14.9583 14.0903 15.0417 13.9375C15.125 13.7847 15.1111 13.6389 15 13.5L12.7083 10.4375C12.625 10.3264 12.5139 10.2708 12.375 10.2708C12.2361 10.2708 12.125 10.3264 12.0417 10.4375L9.875 13.3333L8.33333 11.2708C8.25 11.1597 8.13889 11.1042 8 11.1042C7.86111 11.1042 7.75 11.1597 7.66667 11.2708L6 13.5C5.88889 13.6389 5.875 13.7847 5.95834 13.9375C6.04167 14.0903 6.16667 14.1667 6.33334 14.1667ZM4.66667 9.16667V15.8333V4.16667V9.16667Z" fill="#4D4D4D"/>
</svg>
