<svg width="16" height="16" viewBox="0 0 16 16" fill="none" xmlns="http://www.w3.org/2000/svg">
<path d="M14.8571 9.14286H9.14286V14.8571C9.14286 15.1602 9.02245 15.4509 8.80812 15.6653C8.59379 15.8796 8.30311 16 8 16C7.6969 16 7.40621 15.8796 7.19188 15.6653C6.97755 15.4509 6.85714 15.1602 6.85714 14.8571V9.14286H1.14286C0.839753 9.14286 0.549063 9.02245 0.334735 8.80812C0.120408 8.59379 0 8.30311 0 8C0 7.6969 0.120408 7.40621 0.334735 7.19188C0.549063 6.97755 0.839753 6.85714 1.14286 6.85714H6.85714V1.14286C6.85714 0.839753 6.97755 0.549062 7.19188 0.334735C7.40621 0.120407 7.6969 0 8 0C8.30311 0 8.59379 0.120407 8.80812 0.334735C9.02245 0.549062 9.14286 0.839753 9.14286 1.14286V6.85714H14.8571C15.1602 6.85714 15.4509 6.97755 15.6653 7.19188C15.8796 7.40621 16 7.6969 16 8C16 8.30311 15.8796 8.59379 15.6653 8.80812C15.4509 9.02245 15.1602 9.14286 14.8571 9.14286Z" fill="#FF8700"/>
</svg>
