<svg width="14" height="13" viewBox="0 0 14 13" fill="none" xmlns="http://www.w3.org/2000/svg">
<path d="M6.99953 10.8055L3.76802 12.7165C3.62526 12.8056 3.47602 12.8438 3.32028 12.8311C3.16455 12.8184 3.02828 12.7674 2.91148 12.6782C2.79468 12.5891 2.70383 12.4777 2.63894 12.3442C2.57405 12.2102 2.56107 12.0604 2.60001 11.8947L3.45655 8.28305L0.594915 5.85614C0.465136 5.74148 0.384154 5.61077 0.351968 5.46401C0.319264 5.31776 0.328868 5.17457 0.380779 5.03443C0.432691 4.8943 0.510559 4.77964 0.614382 4.69046C0.718206 4.60128 0.860963 4.54396 1.04265 4.51848L4.81923 4.19361L6.27925 0.792124C6.34414 0.639248 6.44485 0.524591 6.58138 0.448153C6.71739 0.371715 6.85677 0.333496 6.99953 0.333496C7.14228 0.333496 7.28193 0.371715 7.41845 0.448153C7.55446 0.524591 7.65491 0.639248 7.7198 0.792124L9.17982 4.19361L12.9564 4.51848C13.1381 4.54396 13.2808 4.60128 13.3847 4.69046C13.4885 4.77964 13.5664 4.8943 13.6183 5.03443C13.6702 5.17457 13.68 5.31776 13.6479 5.46401C13.6152 5.61077 13.5339 5.74148 13.4041 5.85614L10.5425 8.28305L11.399 11.8947C11.438 12.0604 11.425 12.2102 11.3601 12.3442C11.2952 12.4777 11.2044 12.5891 11.0876 12.6782C10.9708 12.7674 10.8345 12.8184 10.6788 12.8311C10.523 12.8438 10.3738 12.8056 10.231 12.7165L6.99953 10.8055Z" fill="#EDB013"/>
</svg>
