<svg width="21" height="18" viewBox="0 0 21 18" fill="none" xmlns="http://www.w3.org/2000/svg">
<path fill-rule="evenodd" clip-rule="evenodd" d="M18.7767 0.429965C19.0238 0.325956 19.2943 0.290084 19.5599 0.326082C19.8256 0.362081 20.0768 0.468633 20.2873 0.63465C20.4979 0.800667 20.6601 1.02008 20.757 1.27005C20.854 1.52002 20.8822 1.79141 20.8387 2.05597L18.5707 15.813C18.3507 17.14 16.8947 17.901 15.6777 17.24C14.6597 16.687 13.1477 15.835 11.7877 14.946C11.1077 14.501 9.02465 13.076 9.28065 12.062C9.50065 11.195 13.0007 7.93696 15.0007 5.99997C15.7857 5.23897 15.4277 4.79997 14.5007 5.49997C12.1977 7.23797 8.50265 9.88097 7.28065 10.625C6.20265 11.281 5.64065 11.393 4.96865 11.281C3.74265 11.077 2.60565 10.761 1.67765 10.376C0.423654 9.85597 0.484654 8.13197 1.67665 7.62997L18.7767 0.429965Z" fill="#259EDA"/>
</svg>
