<svg width="16" height="20" viewBox="0 0 16 20" fill="none" xmlns="http://www.w3.org/2000/svg">
<path fill-rule="evenodd" clip-rule="evenodd" d="M3.98133 4.42857C3.98133 3.32035 4.42157 2.25751 5.2052 1.47388C5.98883 0.690241 7.05167 0.25 8.1599 0.25C9.26812 0.25 10.331 0.690241 11.1146 1.47388C11.8982 2.25751 12.3385 3.32035 12.3385 4.42857C12.3385 5.5368 11.8982 6.59963 11.1146 7.38327C10.331 8.1669 9.26812 8.60714 8.1599 8.60714C7.05167 8.60714 5.98883 8.1669 5.2052 7.38327C4.42157 6.59963 3.98133 5.5368 3.98133 4.42857ZM0.500111 17.5261C0.531423 15.5152 1.35221 13.5973 2.78529 12.1864C4.21837 10.7755 6.14881 9.98463 8.1599 9.98463C10.171 9.98463 12.1014 10.7755 13.5345 12.1864C14.9676 13.5973 15.7884 15.5152 15.8197 17.5261C15.8221 17.6614 15.785 17.7946 15.7129 17.9092C15.6409 18.0238 15.5369 18.1149 15.4139 18.1714C13.1381 19.2149 10.6635 19.7534 8.1599 19.75C5.5729 19.75 3.11497 19.1854 0.905897 18.1714C0.782848 18.1149 0.678931 18.0238 0.606861 17.9092C0.534792 17.7946 0.497695 17.6614 0.500111 17.5261Z" fill="inherit"/>
</svg>
