<svg width="21" height="12" viewBox="0 0 21 12" fill="none" xmlns="http://www.w3.org/2000/svg">
<path d="M19.579 0.854828C19.719 0.389828 19.579 0.0488281 18.917 0.0488281H16.724C16.166 0.0488281 15.911 0.343829 15.771 0.667829C15.771 0.667829 14.656 3.38683 13.076 5.14983C12.566 5.66283 12.333 5.82483 12.055 5.82483C11.916 5.82483 11.714 5.66283 11.714 5.19783V0.854828C11.714 0.296828 11.553 0.0488281 11.088 0.0488281H7.642C7.294 0.0488281 7.084 0.306828 7.084 0.552828C7.084 1.08083 7.874 1.20283 7.955 2.69083V5.91883C7.955 6.62583 7.828 6.75483 7.548 6.75483C6.805 6.75483 4.997 4.02583 3.924 0.901828C3.715 0.294828 3.504 0.0498285 2.944 0.0498285H0.752C0.125 0.0498285 0 0.344828 0 0.668828C0 1.25083 0.743 4.13083 3.461 7.93983C5.273 10.5408 7.824 11.9508 10.148 11.9508C11.541 11.9508 11.713 11.6378 11.713 11.0978V9.13183C11.713 8.50583 11.846 8.37983 12.287 8.37983C12.611 8.37983 13.169 8.54383 14.47 9.79683C15.956 11.2828 16.202 11.9498 17.037 11.9498H19.229C19.855 11.9498 20.168 11.6368 19.988 11.0188C19.791 10.4038 19.081 9.50883 18.139 8.44983C17.627 7.84583 16.862 7.19583 16.629 6.87083C16.304 6.45183 16.398 6.26683 16.629 5.89483C16.63 5.89583 19.301 2.13383 19.579 0.854828Z" fill="#0077FF"/>
</svg>
